<svg width="24" height="24" viewBox="0 0 24 24" fill="none" xmlns="http://www.w3.org/2000/svg">
<path d="M19 13H7.14L10.77 17.36C10.854 17.4611 10.9174 17.5778 10.9563 17.7034C10.9953 17.829 11.0091 17.961 10.997 18.0919C10.9726 18.3564 10.8442 18.6003 10.64 18.77C10.4358 18.9397 10.1725 19.0214 9.90808 18.997C9.64365 18.9726 9.39974 18.8442 9.23 18.64L4.23 12.64C4.19636 12.5923 4.16628 12.5421 4.14 12.49C4.14 12.44 4.09 12.41 4.07 12.36C4.02467 12.2453 4.00094 12.1233 4 12C4.00094 11.8767 4.02467 11.7547 4.07 11.64C4.07 11.59 4.12 11.56 4.14 11.51C4.16628 11.4579 4.19636 11.4077 4.23 11.36L9.23 5.36C9.32402 5.24712 9.44176 5.15634 9.57485 5.09412C9.70793 5.0319 9.85309 4.99976 10 5C10.2337 4.99955 10.4601 5.08092 10.64 5.23C10.7413 5.31395 10.825 5.41705 10.8863 5.5334C10.9477 5.64975 10.9855 5.77705 10.9975 5.90803C11.0096 6.03901 10.9957 6.17108 10.9567 6.29668C10.9176 6.42229 10.8542 6.53895 10.77 6.64L7.14 11H19C19.2652 11 19.5196 11.1054 19.7071 11.2929C19.8946 11.4804 20 11.7348 20 12C20 12.2652 19.8946 12.5196 19.7071 12.7071C19.5196 12.8946 19.2652 13 19 13Z" fill="#4C60EB"/>
</svg>
