<svg width="16" height="16" viewBox="0 0 16 16" fill="none" xmlns="http://www.w3.org/2000/svg">
<circle cx="8.30779" cy="8.0766" r="6.35385" fill="#274FED" stroke="white" stroke-width="2.67692"/>
<path fill-rule="evenodd" clip-rule="evenodd" d="M5.90907 5.84723H6.1753C6.21967 5.4364 6.57464 5.11362 7.00357 5.11362H9.5919C10.006 5.11362 10.361 5.4364 10.4054 5.84723H10.6864C11.2336 5.84723 11.6922 6.30206 11.6922 6.84493V9.94076C11.6922 10.4836 11.2336 10.9238 10.6864 10.9238H5.90907C5.34703 10.9238 4.90332 10.4836 4.90332 9.94076V6.84493C4.90332 6.30206 5.34703 5.84723 5.90907 5.84723ZM8.29034 6.52214C9.34047 6.52214 10.1835 7.35846 10.1835 8.38551C10.1835 9.42723 9.34047 10.2635 8.29034 10.2635C7.25501 10.2635 6.41195 9.42723 6.41195 8.38551C6.41195 7.35846 7.25501 6.52214 8.29034 6.52214ZM5.90907 6.39009C6.16051 6.39009 6.35279 6.59551 6.35279 6.83026C6.35279 7.07969 6.16051 7.27042 5.90907 7.27042C5.67243 7.27042 5.48015 7.07969 5.48015 6.83026C5.48015 6.59551 5.67243 6.39009 5.90907 6.39009Z" fill="white"/>
</svg>