<svg width="24" height="24" viewBox="0 0 24 24" fill="none" xmlns="http://www.w3.org/2000/svg">
<path d="M12 13.5C12.8284 13.5 13.5 12.8284 13.5 12C13.5 11.1716 12.8284 10.5 12 10.5C11.1716 10.5 10.5 11.1716 10.5 12C10.5 12.8284 11.1716 13.5 12 13.5Z" fill="white" fill-opacity="0.5"/>
<path d="M21.89 10.32L21.1 7.8C21.0147 7.50876 20.8716 7.23767 20.6793 7.00292C20.4869 6.76817 20.2493 6.57456 19.9805 6.43364C19.7117 6.29272 19.4173 6.20737 19.1149 6.1827C18.8124 6.15802 18.508 6.19451 18.22 6.29L17.88 6.4C17.6136 6.48805 17.3299 6.51039 17.0531 6.46511C16.7762 6.41984 16.5144 6.3083 16.29 6.14L16.18 6.06C15.961 5.89237 15.7844 5.67562 15.6646 5.42723C15.5447 5.17884 15.4849 4.90575 15.49 4.63V4.35C15.4948 3.72202 15.2503 3.11779 14.81 2.67C14.6005 2.45845 14.3514 2.29036 14.0768 2.17538C13.8022 2.0604 13.5077 2.0008 13.21 2H10.66C10.0482 2.00791 9.46422 2.25719 9.03532 2.69358C8.60642 3.12997 8.36729 3.71813 8.36997 4.33V4.57C8.36901 4.86027 8.30293 5.14663 8.17659 5.40796C8.05024 5.6693 7.86687 5.89895 7.63997 6.08L7.50997 6.18C7.25932 6.36962 6.96614 6.49516 6.65593 6.5457C6.34572 6.59624 6.02786 6.57025 5.72997 6.47C5.45639 6.37533 5.16644 6.33715 4.87767 6.35777C4.5889 6.3784 4.30732 6.4574 4.04997 6.59C3.78203 6.72299 3.54432 6.90969 3.35163 7.1385C3.15895 7.36731 3.01542 7.63333 2.92997 7.92L2.10997 10.52C1.91982 11.1062 1.96858 11.7437 2.24568 12.2942C2.52278 12.8447 3.00585 13.2636 3.58997 13.46H3.74997C4.01943 13.561 4.26128 13.7241 4.45588 13.9361C4.65048 14.148 4.79235 14.4029 4.86997 14.68L4.92997 14.84C5.04145 15.1461 5.07873 15.4743 5.03875 15.7977C4.99876 16.121 4.88266 16.4302 4.69997 16.7C4.33019 17.2036 4.17422 17.8328 4.26598 18.4508C4.35774 19.0688 4.68982 19.6256 5.18997 20L7.25997 21.57C7.65193 21.855 8.12541 22.0058 8.60997 22C8.73966 22.0127 8.87028 22.0127 8.99997 22C9.30008 21.9419 9.5852 21.8233 9.83793 21.6514C10.0907 21.4794 10.3057 21.2578 10.47 21L10.7 20.67C10.8613 20.4386 11.0748 20.2483 11.3232 20.1145C11.5716 19.9808 11.8479 19.9073 12.13 19.9C12.4255 19.8927 12.7181 19.9604 12.9804 20.0968C13.2427 20.2332 13.4662 20.4339 13.63 20.68L13.75 20.85C13.9205 21.1037 14.1411 21.3199 14.3983 21.4852C14.6555 21.6504 14.9438 21.7613 15.2454 21.8109C15.5471 21.8606 15.8557 21.848 16.1523 21.7739C16.4489 21.6997 16.7271 21.5657 16.97 21.38L19 19.86C19.4799 19.4872 19.7991 18.945 19.8921 18.3444C19.9851 17.7438 19.8448 17.1304 19.5 16.63L19.24 16.25C19.0836 16.0084 18.9812 15.736 18.9398 15.4512C18.8984 15.1664 18.9189 14.8761 19 14.6C19.0826 14.3044 19.2359 14.0334 19.4467 13.8104C19.6576 13.5874 19.9195 13.4191 20.21 13.32L20.41 13.25C20.9887 13.0492 21.4666 12.6312 21.7428 12.0845C22.019 11.5377 22.0718 10.905 21.89 10.32ZM12 15.5C11.3077 15.5 10.6311 15.2947 10.0555 14.9101C9.47991 14.5256 9.0313 13.9789 8.7664 13.3394C8.50149 12.6999 8.43218 11.9961 8.56722 11.3172C8.70227 10.6383 9.03562 10.0146 9.5251 9.52513C10.0146 9.03564 10.6382 8.7023 11.3172 8.56725C11.9961 8.4322 12.6998 8.50151 13.3394 8.76642C13.9789 9.03133 14.5255 9.47993 14.9101 10.0555C15.2947 10.6311 15.5 11.3078 15.5 12C15.5 12.9283 15.1312 13.8185 14.4748 14.4749C13.8185 15.1313 12.9282 15.5 12 15.5Z" fill="white" fill-opacity="0.5"/>
</svg>
